<svg xmlns="http://www.w3.org/2000/svg" version="1.1" xmlns:xlink="http://www.w3.org/1999/xlink" xmlns:svgjs="http://svgjs.dev/svgjs" width="1440" height="560" preserveAspectRatio="none" viewBox="0 0 1440 560"><g mask="url(&quot;#SvgjsMask1088&quot;)" fill="none"><path d="M-41.3 389.61L-41.3 389.61" stroke="#132e65" stroke-width="1.5"></path><path d="M-41.3 389.61L-86.3 496.69" stroke="#132e65" stroke-width="1.5"></path><path d="M-41.3 389.61L83.21 385.76" stroke="#132e65" stroke-width="1.5"></path><path d="M-86.3 496.69L-86.3 496.69" stroke="#132e65" stroke-width="1.5"></path><path d="M-86.3 496.69L-56.16 656.09" stroke="#132e65" stroke-width="1.5"></path><path d="M-86.3 496.69L89.57 501.4" stroke="#132e65" stroke-width="1.5"></path><path d="M-86.3 496.69L83.21 385.76" stroke="#132e65" stroke-width="1.5"></path><path d="M-86.3 496.69L57.36 700.77" stroke="#132e65" stroke-width="1.5"></path><path d="M-56.16 656.09L-56.16 656.09" stroke="#132e65" stroke-width="1.5"></path><path d="M-56.16 656.09L57.36 700.77" stroke="#132e65" stroke-width="1.5"></path><path d="M83.21 385.76L83.21 385.76" stroke="#132e65" stroke-width="1.5"></path><path d="M83.21 385.76L190.32 353.03" stroke="#132e65" stroke-width="1.5"></path><path d="M83.21 385.76L89.57 501.4" stroke="#132e65" stroke-width="1.5"></path><path d="M89.57 501.4L89.57 501.4" stroke="#132e65" stroke-width="1.5"></path><path d="M89.57 501.4L-41.3 389.61" stroke="#132e65" stroke-width="1.5"></path><path d="M57.36 700.77L57.36 700.77" stroke="#132e65" stroke-width="1.5"></path><path d="M57.36 700.77L89.57 501.4" stroke="#132e65" stroke-width="1.5"></path><path d="M57.36 700.77L256.89 559.27" stroke="#132e65" stroke-width="1.5"></path><path d="M57.36 700.77L362.54 698.97" stroke="#132e65" stroke-width="1.5"></path><path d="M190.32 353.03L190.32 353.03" stroke="#132e65" stroke-width="1.5"></path><path d="M190.32 353.03L89.57 501.4" stroke="#132e65" stroke-width="1.5"></path><path d="M190.32 353.03L380.02 386.41" stroke="#132e65" stroke-width="1.5"></path><path d="M190.32 353.03L256.89 559.27" stroke="#132e65" stroke-width="1.5"></path><path d="M256.89 559.27L256.89 559.27" stroke="#132e65" stroke-width="1.5"></path><path d="M256.89 559.27L349.29 533.53" stroke="#132e65" stroke-width="1.5"></path><path d="M256.89 559.27L362.54 698.97" stroke="#132e65" stroke-width="1.5"></path><path d="M256.89 559.27L89.57 501.4" stroke="#132e65" stroke-width="1.5"></path><path d="M256.89 559.27L380.02 386.41" stroke="#132e65" stroke-width="1.5"></path><path d="M380.02 386.41L380.02 386.41" stroke="#132e65" stroke-width="1.5"></path><path d="M380.02 386.41L511.82 351.88" stroke="#132e65" stroke-width="1.5"></path><path d="M380.02 386.41L349.29 533.53" stroke="#132e65" stroke-width="1.5"></path><path d="M380.02 386.41L501.54 518.07" stroke="#132e65" stroke-width="1.5"></path><path d="M380.02 386.41L83.21 385.76" stroke="#132e65" stroke-width="1.5"></path><path d="M349.29 533.53L349.29 533.53" stroke="#132e65" stroke-width="1.5"></path><path d="M349.29 533.53L501.54 518.07" stroke="#132e65" stroke-width="1.5"></path><path d="M349.29 533.53L362.54 698.97" stroke="#132e65" stroke-width="1.5"></path><path d="M349.29 533.53L190.32 353.03" stroke="#132e65" stroke-width="1.5"></path><path d="M362.54 698.97L362.54 698.97" stroke="#132e65" stroke-width="1.5"></path><path d="M362.54 698.97L501.54 518.07" stroke="#132e65" stroke-width="1.5"></path><path d="M511.82 351.88L511.82 351.88" stroke="#132e65" stroke-width="1.5"></path><path d="M511.82 351.88L501.54 518.07" stroke="#132e65" stroke-width="1.5"></path><path d="M501.54 518.07L501.54 518.07" stroke="#132e65" stroke-width="1.5"></path><path d="M501.54 518.07L683.52 495.56" stroke="#132e65" stroke-width="1.5"></path><path d="M701.98 359.88L701.98 359.88" stroke="#132e65" stroke-width="1.5"></path><path d="M701.98 359.88L819.9 389.38" stroke="#132e65" stroke-width="1.5"></path><path d="M701.98 359.88L683.52 495.56" stroke="#132e65" stroke-width="1.5"></path><path d="M701.98 359.88L511.82 351.88" stroke="#132e65" stroke-width="1.5"></path><path d="M683.52 495.56L683.52 495.56" stroke="#132e65" stroke-width="1.5"></path><path d="M683.52 495.56L838.48 511.74" stroke="#132e65" stroke-width="1.5"></path><path d="M705.09 704.02L705.09 704.02" stroke="#132e65" stroke-width="1.5"></path><path d="M705.09 704.02L850.92 703.98" stroke="#132e65" stroke-width="1.5"></path><path d="M705.09 704.02L683.52 495.56" stroke="#132e65" stroke-width="1.5"></path><path d="M705.09 704.02L838.48 511.74" stroke="#132e65" stroke-width="1.5"></path><path d="M705.09 704.02L501.54 518.07" stroke="#132e65" stroke-width="1.5"></path><path d="M857.51 239.91L857.51 239.91" stroke="#132e65" stroke-width="1.5"></path><path d="M857.51 239.91L959.44 204.98" stroke="#132e65" stroke-width="1.5"></path><path d="M857.51 239.91L819.9 389.38" stroke="#132e65" stroke-width="1.5"></path><path d="M857.51 239.91L701.98 359.88" stroke="#132e65" stroke-width="1.5"></path><path d="M857.51 239.91L1005.74 398.08" stroke="#132e65" stroke-width="1.5"></path><path d="M857.51 239.91L997.6 48.45" stroke="#132e65" stroke-width="1.5"></path><path d="M819.9 389.38L819.9 389.38" stroke="#132e65" stroke-width="1.5"></path><path d="M819.9 389.38L838.48 511.74" stroke="#132e65" stroke-width="1.5"></path><path d="M819.9 389.38L683.52 495.56" stroke="#132e65" stroke-width="1.5"></path><path d="M819.9 389.38L1005.74 398.08" stroke="#132e65" stroke-width="1.5"></path><path d="M819.9 389.38L997.11 530.22" stroke="#132e65" stroke-width="1.5"></path><path d="M838.48 511.74L838.48 511.74" stroke="#132e65" stroke-width="1.5"></path><path d="M838.48 511.74L997.11 530.22" stroke="#132e65" stroke-width="1.5"></path><path d="M838.48 511.74L850.92 703.98" stroke="#132e65" stroke-width="1.5"></path><path d="M838.48 511.74L989.78 639.66" stroke="#132e65" stroke-width="1.5"></path><path d="M850.92 703.98L850.92 703.98" stroke="#132e65" stroke-width="1.5"></path><path d="M850.92 703.98L989.78 639.66" stroke="#132e65" stroke-width="1.5"></path><path d="M850.92 703.98L997.11 530.22" stroke="#132e65" stroke-width="1.5"></path><path d="M939.01 -39.73L939.01 -39.73" stroke="#132e65" stroke-width="1.5"></path><path d="M939.01 -39.73L997.6 48.45" stroke="#132e65" stroke-width="1.5"></path><path d="M939.01 -39.73L1152.28 46.72" stroke="#132e65" stroke-width="1.5"></path><path d="M939.01 -39.73L959.44 204.98" stroke="#132e65" stroke-width="1.5"></path><path d="M939.01 -39.73L857.51 239.91" stroke="#132e65" stroke-width="1.5"></path><path d="M997.6 48.45L997.6 48.45" stroke="#132e65" stroke-width="1.5"></path><path d="M997.6 48.45L1152.28 46.72" stroke="#132e65" stroke-width="1.5"></path><path d="M959.44 204.98L959.44 204.98" stroke="#132e65" stroke-width="1.5"></path><path d="M959.44 204.98L997.6 48.45" stroke="#132e65" stroke-width="1.5"></path><path d="M959.44 204.98L1005.74 398.08" stroke="#132e65" stroke-width="1.5"></path><path d="M959.44 204.98L1160.05 213.65" stroke="#132e65" stroke-width="1.5"></path><path d="M959.44 204.98L819.9 389.38" stroke="#132e65" stroke-width="1.5"></path><path d="M1005.74 398.08L1005.74 398.08" stroke="#132e65" stroke-width="1.5"></path><path d="M1005.74 398.08L997.11 530.22" stroke="#132e65" stroke-width="1.5"></path><path d="M1005.74 398.08L1160.85 352.75" stroke="#132e65" stroke-width="1.5"></path><path d="M1005.74 398.08L1151.35 488.1" stroke="#132e65" stroke-width="1.5"></path><path d="M997.11 530.22L997.11 530.22" stroke="#132e65" stroke-width="1.5"></path><path d="M997.11 530.22L989.78 639.66" stroke="#132e65" stroke-width="1.5"></path><path d="M997.11 530.22L1151.35 488.1" stroke="#132e65" stroke-width="1.5"></path><path d="M989.78 639.66L989.78 639.66" stroke="#132e65" stroke-width="1.5"></path><path d="M1152.28 46.72L1152.28 46.72" stroke="#132e65" stroke-width="1.5"></path><path d="M1152.28 46.72L1242.64 78.06" stroke="#132e65" stroke-width="1.5"></path><path d="M1152.28 46.72L1254.91 -62.58" stroke="#132e65" stroke-width="1.5"></path><path d="M1152.28 46.72L1160.05 213.65" stroke="#132e65" stroke-width="1.5"></path><path d="M1152.28 46.72L1273.21 209.29" stroke="#132e65" stroke-width="1.5"></path><path d="M1160.05 213.65L1160.05 213.65" stroke="#132e65" stroke-width="1.5"></path><path d="M1160.05 213.65L1273.21 209.29" stroke="#132e65" stroke-width="1.5"></path><path d="M1160.05 213.65L1160.85 352.75" stroke="#132e65" stroke-width="1.5"></path><path d="M1160.05 213.65L1242.64 78.06" stroke="#132e65" stroke-width="1.5"></path><path d="M1160.05 213.65L1280.08 395.92" stroke="#132e65" stroke-width="1.5"></path><path d="M1160.85 352.75L1160.85 352.75" stroke="#132e65" stroke-width="1.5"></path><path d="M1160.85 352.75L1280.08 395.92" stroke="#132e65" stroke-width="1.5"></path><path d="M1160.85 352.75L1151.35 488.1" stroke="#132e65" stroke-width="1.5"></path><path d="M1160.85 352.75L1273.21 209.29" stroke="#132e65" stroke-width="1.5"></path><path d="M1160.85 352.75L1272.58 496.99" stroke="#132e65" stroke-width="1.5"></path><path d="M1151.35 488.1L1151.35 488.1" stroke="#132e65" stroke-width="1.5"></path><path d="M1151.35 488.1L1272.58 496.99" stroke="#132e65" stroke-width="1.5"></path><path d="M1254.91 -62.58L1254.91 -62.58" stroke="#132e65" stroke-width="1.5"></path><path d="M1254.91 -62.58L1242.64 78.06" stroke="#132e65" stroke-width="1.5"></path><path d="M1254.91 -62.58L1445.4 -67.73" stroke="#132e65" stroke-width="1.5"></path><path d="M1254.91 -62.58L1411.13 62.51" stroke="#132e65" stroke-width="1.5"></path><path d="M1254.91 -62.58L1273.21 209.29" stroke="#132e65" stroke-width="1.5"></path><path d="M1254.91 -62.58L997.6 48.45" stroke="#132e65" stroke-width="1.5"></path><path d="M1242.64 78.06L1242.64 78.06" stroke="#132e65" stroke-width="1.5"></path><path d="M1242.64 78.06L1273.21 209.29" stroke="#132e65" stroke-width="1.5"></path><path d="M1242.64 78.06L1411.13 62.51" stroke="#132e65" stroke-width="1.5"></path><path d="M1242.64 78.06L1428.65 198.26" stroke="#132e65" stroke-width="1.5"></path><path d="M1273.21 209.29L1273.21 209.29" stroke="#132e65" stroke-width="1.5"></path><path d="M1280.08 395.92L1280.08 395.92" stroke="#132e65" stroke-width="1.5"></path><path d="M1280.08 395.92L1272.58 496.99" stroke="#132e65" stroke-width="1.5"></path><path d="M1272.58 496.99L1272.58 496.99" stroke="#132e65" stroke-width="1.5"></path><path d="M1272.58 496.99L1398.13 559.78" stroke="#132e65" stroke-width="1.5"></path><path d="M1445.4 -67.73L1445.4 -67.73" stroke="#132e65" stroke-width="1.5"></path><path d="M1445.4 -67.73L1565.09 -55.29" stroke="#132e65" stroke-width="1.5"></path><path d="M1445.4 -67.73L1411.13 62.51" stroke="#132e65" stroke-width="1.5"></path><path d="M1445.4 -67.73L1608.27 88.3" stroke="#132e65" stroke-width="1.5"></path><path d="M1445.4 -67.73L1242.64 78.06" stroke="#132e65" stroke-width="1.5"></path><path d="M1411.13 62.51L1411.13 62.51" stroke="#132e65" stroke-width="1.5"></path><path d="M1411.13 62.51L1428.65 198.26" stroke="#132e65" stroke-width="1.5"></path><path d="M1428.65 198.26L1428.65 198.26" stroke="#132e65" stroke-width="1.5"></path><path d="M1428.65 198.26L1404.89 342.09" stroke="#132e65" stroke-width="1.5"></path><path d="M1404.89 342.09L1404.89 342.09" stroke="#132e65" stroke-width="1.5"></path><path d="M1404.89 342.09L1280.08 395.92" stroke="#132e65" stroke-width="1.5"></path><path d="M1398.13 559.78L1398.13 559.78" stroke="#132e65" stroke-width="1.5"></path><path d="M1398.13 559.78L1420.07 687.6" stroke="#132e65" stroke-width="1.5"></path><path d="M1398.13 559.78L1280.08 395.92" stroke="#132e65" stroke-width="1.5"></path><path d="M1398.13 559.78L1601.63 538.87" stroke="#132e65" stroke-width="1.5"></path><path d="M1420.07 687.6L1420.07 687.6" stroke="#132e65" stroke-width="1.5"></path><path d="M1420.07 687.6L1585.36 679.14" stroke="#132e65" stroke-width="1.5"></path><path d="M1420.07 687.6L1601.63 538.87" stroke="#132e65" stroke-width="1.5"></path><path d="M1420.07 687.6L1272.58 496.99" stroke="#132e65" stroke-width="1.5"></path><path d="M1420.07 687.6L1280.08 395.92" stroke="#132e65" stroke-width="1.5"></path><path d="M1420.07 687.6L1151.35 488.1" stroke="#132e65" stroke-width="1.5"></path><path d="M1565.09 -55.29L1565.09 -55.29" stroke="#132e65" stroke-width="1.5"></path><path d="M1565.09 -55.29L1608.27 88.3" stroke="#132e65" stroke-width="1.5"></path><path d="M1565.09 -55.29L1411.13 62.51" stroke="#132e65" stroke-width="1.5"></path><path d="M1565.09 -55.29L1577.68 188.66" stroke="#132e65" stroke-width="1.5"></path><path d="M1565.09 -55.29L1428.65 198.26" stroke="#132e65" stroke-width="1.5"></path><path d="M1608.27 88.3L1608.27 88.3" stroke="#132e65" stroke-width="1.5"></path><path d="M1608.27 88.3L1577.68 188.66" stroke="#132e65" stroke-width="1.5"></path><path d="M1608.27 88.3L1411.13 62.51" stroke="#132e65" stroke-width="1.5"></path><path d="M1608.27 88.3L1428.65 198.26" stroke="#132e65" stroke-width="1.5"></path><path d="M1577.68 188.66L1577.68 188.66" stroke="#132e65" stroke-width="1.5"></path><path d="M1577.68 188.66L1428.65 198.26" stroke="#132e65" stroke-width="1.5"></path><path d="M1605.98 385.89L1605.98 385.89" stroke="#132e65" stroke-width="1.5"></path><path d="M1605.98 385.89L1601.63 538.87" stroke="#132e65" stroke-width="1.5"></path><path d="M1605.98 385.89L1577.68 188.66" stroke="#132e65" stroke-width="1.5"></path><path d="M1605.98 385.89L1404.89 342.09" stroke="#132e65" stroke-width="1.5"></path><path d="M1605.98 385.89L1428.65 198.26" stroke="#132e65" stroke-width="1.5"></path><path d="M1605.98 385.89L1398.13 559.78" stroke="#132e65" stroke-width="1.5"></path><path d="M1605.98 385.89L1585.36 679.14" stroke="#132e65" stroke-width="1.5"></path><path d="M1601.63 538.87L1601.63 538.87" stroke="#132e65" stroke-width="1.5"></path><path d="M1601.63 538.87L1585.36 679.14" stroke="#132e65" stroke-width="1.5"></path><path d="M1585.36 679.14L1585.36 679.14" stroke="#132e65" stroke-width="1.5"></path><path d="M1585.36 679.14L1398.13 559.78" stroke="#132e65" stroke-width="1.5"></path><path d="M1585.36 679.14L1272.58 496.99" stroke="#132e65" stroke-width="1.5"></path><path d="M1585.36 679.14L1404.89 342.09" stroke="#132e65" stroke-width="1.5"></path><circle r="5" cx="-41.3" cy="389.61" fill="#132e65"></circle><circle r="5" cx="-86.3" cy="496.69" fill="#132e65"></circle><circle r="5" cx="-56.16" cy="656.09" fill="#132e65"></circle><circle r="5" cx="83.21" cy="385.76" fill="#132e65"></circle><circle r="5" cx="89.57" cy="501.4" fill="#132e65"></circle><circle r="5" cx="57.36" cy="700.77" fill="#132e65"></circle><circle r="5" cx="190.32" cy="353.03" fill="#132e65"></circle><circle r="5" cx="256.89" cy="559.27" fill="#132e65"></circle><circle r="5" cx="380.02" cy="386.41" fill="#132e65"></circle><circle r="5" cx="349.29" cy="533.53" fill="#132e65"></circle><circle r="5" cx="362.54" cy="698.97" fill="#132e65"></circle><circle r="5" cx="511.82" cy="351.88" fill="#132e65"></circle><circle r="5" cx="501.54" cy="518.07" fill="#132e65"></circle><circle r="5" cx="701.98" cy="359.88" fill="#132e65"></circle><circle r="5" cx="683.52" cy="495.56" fill="#132e65"></circle><circle r="5" cx="705.09" cy="704.02" fill="#132e65"></circle><circle r="5" cx="857.51" cy="239.91" fill="#132e65"></circle><circle r="5" cx="819.9" cy="389.38" fill="#132e65"></circle><circle r="5" cx="838.48" cy="511.74" fill="#132e65"></circle><circle r="5" cx="850.92" cy="703.98" fill="#132e65"></circle><circle r="5" cx="939.01" cy="-39.73" fill="#132e65"></circle><circle r="5" cx="997.6" cy="48.45" fill="#132e65"></circle><circle r="5" cx="959.44" cy="204.98" fill="#132e65"></circle><circle r="5" cx="1005.74" cy="398.08" fill="#132e65"></circle><circle r="5" cx="997.11" cy="530.22" fill="#132e65"></circle><circle r="5" cx="989.78" cy="639.66" fill="#132e65"></circle><circle r="5" cx="1152.28" cy="46.72" fill="#132e65"></circle><circle r="5" cx="1160.05" cy="213.65" fill="#132e65"></circle><circle r="5" cx="1160.85" cy="352.75" fill="#132e65"></circle><circle r="5" cx="1151.35" cy="488.1" fill="#132e65"></circle><circle r="5" cx="1254.91" cy="-62.58" fill="#132e65"></circle><circle r="5" cx="1242.64" cy="78.06" fill="#132e65"></circle><circle r="5" cx="1273.21" cy="209.29" fill="#132e65"></circle><circle r="5" cx="1280.08" cy="395.92" fill="#132e65"></circle><circle r="5" cx="1272.58" cy="496.99" fill="#132e65"></circle><circle r="5" cx="1445.4" cy="-67.73" fill="#132e65"></circle><circle r="5" cx="1411.13" cy="62.51" fill="#132e65"></circle><circle r="5" cx="1428.65" cy="198.26" fill="#132e65"></circle><circle r="5" cx="1404.89" cy="342.09" fill="#132e65"></circle><circle r="5" cx="1398.13" cy="559.78" fill="#132e65"></circle><circle r="5" cx="1420.07" cy="687.6" fill="#132e65"></circle><circle r="5" cx="1565.09" cy="-55.29" fill="#132e65"></circle><circle r="5" cx="1608.27" cy="88.3" fill="#132e65"></circle><circle r="5" cx="1577.68" cy="188.66" fill="#132e65"></circle><circle r="5" cx="1605.98" cy="385.89" fill="#132e65"></circle><circle r="5" cx="1601.63" cy="538.87" fill="#132e65"></circle><circle r="5" cx="1585.36" cy="679.14" fill="#132e65"></circle><path d="M51.21 694.18L51.21 694.18" stroke="hsl(228.60000000000002, 100%, 69.6%)" stroke-width="1.5"></path><path d="M51.21 694.18L-87.32 707.08" stroke="hsl(228.60000000000002, 100%, 69.6%)" stroke-width="1.5"></path><path d="M51.21 694.18L214.17 686.74" stroke="hsl(228.60000000000002, 100%, 69.6%)" stroke-width="1.5"></path><path d="M51.21 694.18L96.16 522.91" stroke="hsl(228.60000000000002, 100%, 69.6%)" stroke-width="1.5"></path><path d="M653.09 547.97L653.09 547.97" stroke="hsl(228.60000000000002, 100%, 69.6%)" stroke-width="1.5"></path><path d="M653.09 547.97L642.63 679.19" stroke="hsl(228.60000000000002, 100%, 69.6%)" stroke-width="1.5"></path><path d="M653.09 547.97L516.68 530.85" stroke="hsl(228.60000000000002, 100%, 69.6%)" stroke-width="1.5"></path><path d="M653.09 547.97L824.16 559.16" stroke="hsl(228.60000000000002, 100%, 69.6%)" stroke-width="1.5"></path><path d="M653.09 547.97L516.05 653.74" stroke="hsl(228.60000000000002, 100%, 69.6%)" stroke-width="1.5"></path><path d="M653.09 547.97L852.5 659.23" stroke="hsl(228.60000000000002, 100%, 69.6%)" stroke-width="1.5"></path><path d="M1135.55 237.21L1135.55 237.21" stroke="hsl(228.60000000000002, 100%, 69.6%)" stroke-width="1.5"></path><path d="M1135.55 237.21L1006.21 243.33" stroke="hsl(228.60000000000002, 100%, 69.6%)" stroke-width="1.5"></path><path d="M1135.55 237.21L1147.46 375.87" stroke="hsl(228.60000000000002, 100%, 69.6%)" stroke-width="1.5"></path><path d="M1147.46 375.87L1147.46 375.87" stroke="hsl(228.60000000000002, 100%, 69.6%)" stroke-width="1.5"></path><path d="M1147.46 375.87L1118.42 487.99" stroke="hsl(228.60000000000002, 100%, 69.6%)" stroke-width="1.5"></path><path d="M1147.46 375.87L1267.34 341.72" stroke="hsl(228.60000000000002, 100%, 69.6%)" stroke-width="1.5"></path><path d="M1147.46 375.87L1008.29 373.76" stroke="hsl(228.60000000000002, 100%, 69.6%)" stroke-width="1.5"></path><path d="M1267.34 341.72L1267.34 341.72" stroke="hsl(228.60000000000002, 100%, 69.6%)" stroke-width="1.5"></path><path d="M1267.34 341.72L1246.18 489.23" stroke="hsl(228.60000000000002, 100%, 69.6%)" stroke-width="1.5"></path><path d="M1267.34 341.72L1428.75 379.55" stroke="hsl(228.60000000000002, 100%, 69.6%)" stroke-width="1.5"></path><path d="M1415.25 532.44L1415.25 532.44" stroke="hsl(228.60000000000002, 100%, 69.6%)" stroke-width="1.5"></path><path d="M1415.25 532.44L1415.26 672.15" stroke="hsl(228.60000000000002, 100%, 69.6%)" stroke-width="1.5"></path><path d="M1415.25 532.44L1428.75 379.55" stroke="hsl(228.60000000000002, 100%, 69.6%)" stroke-width="1.5"></path><path d="M1415.25 532.44L1246.18 489.23" stroke="hsl(228.60000000000002, 100%, 69.6%)" stroke-width="1.5"></path><path d="M1415.25 532.44L1553.11 651.49" stroke="hsl(228.60000000000002, 100%, 69.6%)" stroke-width="1.5"></path><path d="M1415.25 532.44L1598.44 523.14" stroke="hsl(228.60000000000002, 100%, 69.6%)" stroke-width="1.5"></path><path d="M1415.25 532.44L1302.97 698.59" stroke="hsl(228.60000000000002, 100%, 69.6%)" stroke-width="1.5"></path><path d="M-69.26 503.46L-69.26 503.46" stroke="hsl(228.60000000000002, 100%, 69.6%)" stroke-width="1.5"></path><path d="M-69.26 503.46L96.16 522.91" stroke="hsl(228.60000000000002, 100%, 69.6%)" stroke-width="1.5"></path><path d="M-69.26 503.46L-87.32 707.08" stroke="hsl(228.60000000000002, 100%, 69.6%)" stroke-width="1.5"></path><path d="M-87.32 707.08L-87.32 707.08" stroke="hsl(228.60000000000002, 100%, 69.6%)" stroke-width="1.5"></path><path d="M-87.32 707.08L96.16 522.91" stroke="hsl(228.60000000000002, 100%, 69.6%)" stroke-width="1.5"></path><path d="M-87.32 707.08L214.17 686.74" stroke="hsl(228.60000000000002, 100%, 69.6%)" stroke-width="1.5"></path><path d="M-87.32 707.08L191.34 505.83" stroke="hsl(228.60000000000002, 100%, 69.6%)" stroke-width="1.5"></path><path d="M-87.32 707.08L339.58 691.46" stroke="hsl(228.60000000000002, 100%, 69.6%)" stroke-width="1.5"></path><path d="M96.16 522.91L96.16 522.91" stroke="hsl(228.60000000000002, 100%, 69.6%)" stroke-width="1.5"></path><path d="M96.16 522.91L191.34 505.83" stroke="hsl(228.60000000000002, 100%, 69.6%)" stroke-width="1.5"></path><path d="M191.34 505.83L191.34 505.83" stroke="hsl(228.60000000000002, 100%, 69.6%)" stroke-width="1.5"></path><path d="M191.34 505.83L214.17 686.74" stroke="hsl(228.60000000000002, 100%, 69.6%)" stroke-width="1.5"></path><path d="M191.34 505.83L400.18 537.69" stroke="hsl(228.60000000000002, 100%, 69.6%)" stroke-width="1.5"></path><path d="M214.17 686.74L214.17 686.74" stroke="hsl(228.60000000000002, 100%, 69.6%)" stroke-width="1.5"></path><path d="M214.17 686.74L339.58 691.46" stroke="hsl(228.60000000000002, 100%, 69.6%)" stroke-width="1.5"></path><path d="M214.17 686.74L96.16 522.91" stroke="hsl(228.60000000000002, 100%, 69.6%)" stroke-width="1.5"></path><path d="M214.17 686.74L400.18 537.69" stroke="hsl(228.60000000000002, 100%, 69.6%)" stroke-width="1.5"></path><path d="M400.18 537.69L400.18 537.69" stroke="hsl(228.60000000000002, 100%, 69.6%)" stroke-width="1.5"></path><path d="M400.18 537.69L516.68 530.85" stroke="hsl(228.60000000000002, 100%, 69.6%)" stroke-width="1.5"></path><path d="M400.18 537.69L516.05 653.74" stroke="hsl(228.60000000000002, 100%, 69.6%)" stroke-width="1.5"></path><path d="M400.18 537.69L339.58 691.46" stroke="hsl(228.60000000000002, 100%, 69.6%)" stroke-width="1.5"></path><path d="M339.58 691.46L339.58 691.46" stroke="hsl(228.60000000000002, 100%, 69.6%)" stroke-width="1.5"></path><path d="M339.58 691.46L516.05 653.74" stroke="hsl(228.60000000000002, 100%, 69.6%)" stroke-width="1.5"></path><path d="M339.58 691.46L191.34 505.83" stroke="hsl(228.60000000000002, 100%, 69.6%)" stroke-width="1.5"></path><path d="M516.68 530.85L516.68 530.85" stroke="hsl(228.60000000000002, 100%, 69.6%)" stroke-width="1.5"></path><path d="M516.68 530.85L516.05 653.74" stroke="hsl(228.60000000000002, 100%, 69.6%)" stroke-width="1.5"></path><path d="M516.05 653.74L516.05 653.74" stroke="hsl(228.60000000000002, 100%, 69.6%)" stroke-width="1.5"></path><path d="M516.05 653.74L642.63 679.19" stroke="hsl(228.60000000000002, 100%, 69.6%)" stroke-width="1.5"></path><path d="M516.05 653.74L214.17 686.74" stroke="hsl(228.60000000000002, 100%, 69.6%)" stroke-width="1.5"></path><path d="M642.63 679.19L642.63 679.19" stroke="hsl(228.60000000000002, 100%, 69.6%)" stroke-width="1.5"></path><path d="M642.63 679.19L516.68 530.85" stroke="hsl(228.60000000000002, 100%, 69.6%)" stroke-width="1.5"></path><path d="M642.63 679.19L852.5 659.23" stroke="hsl(228.60000000000002, 100%, 69.6%)" stroke-width="1.5"></path><path d="M642.63 679.19L824.16 559.16" stroke="hsl(228.60000000000002, 100%, 69.6%)" stroke-width="1.5"></path><path d="M642.63 679.19L400.18 537.69" stroke="hsl(228.60000000000002, 100%, 69.6%)" stroke-width="1.5"></path><path d="M824.16 559.16L824.16 559.16" stroke="hsl(228.60000000000002, 100%, 69.6%)" stroke-width="1.5"></path><path d="M824.16 559.16L852.5 659.23" stroke="hsl(228.60000000000002, 100%, 69.6%)" stroke-width="1.5"></path><path d="M824.16 559.16L939.17 550.91" stroke="hsl(228.60000000000002, 100%, 69.6%)" stroke-width="1.5"></path><path d="M824.16 559.16L986.71 679.7" stroke="hsl(228.60000000000002, 100%, 69.6%)" stroke-width="1.5"></path><path d="M852.5 659.23L852.5 659.23" stroke="hsl(228.60000000000002, 100%, 69.6%)" stroke-width="1.5"></path><path d="M852.5 659.23L986.71 679.7" stroke="hsl(228.60000000000002, 100%, 69.6%)" stroke-width="1.5"></path><path d="M1006.21 243.33L1006.21 243.33" stroke="hsl(228.60000000000002, 100%, 69.6%)" stroke-width="1.5"></path><path d="M1006.21 243.33L1008.29 373.76" stroke="hsl(228.60000000000002, 100%, 69.6%)" stroke-width="1.5"></path><path d="M1006.21 243.33L1147.46 375.87" stroke="hsl(228.60000000000002, 100%, 69.6%)" stroke-width="1.5"></path><path d="M1006.21 243.33L1156.6 74.29" stroke="hsl(228.60000000000002, 100%, 69.6%)" stroke-width="1.5"></path><path d="M1008.29 373.76L1008.29 373.76" stroke="hsl(228.60000000000002, 100%, 69.6%)" stroke-width="1.5"></path><path d="M1008.29 373.76L1118.42 487.99" stroke="hsl(228.60000000000002, 100%, 69.6%)" stroke-width="1.5"></path><path d="M1008.29 373.76L1135.55 237.21" stroke="hsl(228.60000000000002, 100%, 69.6%)" stroke-width="1.5"></path><path d="M1008.29 373.76L939.17 550.91" stroke="hsl(228.60000000000002, 100%, 69.6%)" stroke-width="1.5"></path><path d="M1008.29 373.76L1267.34 341.72" stroke="hsl(228.60000000000002, 100%, 69.6%)" stroke-width="1.5"></path><path d="M939.17 550.91L939.17 550.91" stroke="hsl(228.60000000000002, 100%, 69.6%)" stroke-width="1.5"></path><path d="M939.17 550.91L986.71 679.7" stroke="hsl(228.60000000000002, 100%, 69.6%)" stroke-width="1.5"></path><path d="M939.17 550.91L852.5 659.23" stroke="hsl(228.60000000000002, 100%, 69.6%)" stroke-width="1.5"></path><path d="M939.17 550.91L1118.42 487.99" stroke="hsl(228.60000000000002, 100%, 69.6%)" stroke-width="1.5"></path><path d="M939.17 550.91L1141.56 663.25" stroke="hsl(228.60000000000002, 100%, 69.6%)" stroke-width="1.5"></path><path d="M986.71 679.7L986.71 679.7" stroke="hsl(228.60000000000002, 100%, 69.6%)" stroke-width="1.5"></path><path d="M986.71 679.7L1141.56 663.25" stroke="hsl(228.60000000000002, 100%, 69.6%)" stroke-width="1.5"></path><path d="M986.71 679.7L1118.42 487.99" stroke="hsl(228.60000000000002, 100%, 69.6%)" stroke-width="1.5"></path><path d="M986.71 679.7L1008.29 373.76" stroke="hsl(228.60000000000002, 100%, 69.6%)" stroke-width="1.5"></path><path d="M1162.03 -78.96L1162.03 -78.96" stroke="hsl(228.60000000000002, 100%, 69.6%)" stroke-width="1.5"></path><path d="M1162.03 -78.96L1277.14 -110.74" stroke="hsl(228.60000000000002, 100%, 69.6%)" stroke-width="1.5"></path><path d="M1162.03 -78.96L1156.6 74.29" stroke="hsl(228.60000000000002, 100%, 69.6%)" stroke-width="1.5"></path><path d="M1156.6 74.29L1156.6 74.29" stroke="hsl(228.60000000000002, 100%, 69.6%)" stroke-width="1.5"></path><path d="M1156.6 74.29L1293.93 37.64" stroke="hsl(228.60000000000002, 100%, 69.6%)" stroke-width="1.5"></path><path d="M1156.6 74.29L1135.55 237.21" stroke="hsl(228.60000000000002, 100%, 69.6%)" stroke-width="1.5"></path><path d="M1156.6 74.29L1277.14 -110.74" stroke="hsl(228.60000000000002, 100%, 69.6%)" stroke-width="1.5"></path><path d="M1118.42 487.99L1118.42 487.99" stroke="hsl(228.60000000000002, 100%, 69.6%)" stroke-width="1.5"></path><path d="M1118.42 487.99L1246.18 489.23" stroke="hsl(228.60000000000002, 100%, 69.6%)" stroke-width="1.5"></path><path d="M1118.42 487.99L1141.56 663.25" stroke="hsl(228.60000000000002, 100%, 69.6%)" stroke-width="1.5"></path><path d="M1118.42 487.99L1267.34 341.72" stroke="hsl(228.60000000000002, 100%, 69.6%)" stroke-width="1.5"></path><path d="M1141.56 663.25L1141.56 663.25" stroke="hsl(228.60000000000002, 100%, 69.6%)" stroke-width="1.5"></path><path d="M1141.56 663.25L1302.97 698.59" stroke="hsl(228.60000000000002, 100%, 69.6%)" stroke-width="1.5"></path><path d="M1141.56 663.25L1246.18 489.23" stroke="hsl(228.60000000000002, 100%, 69.6%)" stroke-width="1.5"></path><path d="M1141.56 663.25L1415.26 672.15" stroke="hsl(228.60000000000002, 100%, 69.6%)" stroke-width="1.5"></path><path d="M1277.14 -110.74L1277.14 -110.74" stroke="hsl(228.60000000000002, 100%, 69.6%)" stroke-width="1.5"></path><path d="M1277.14 -110.74L1293.93 37.64" stroke="hsl(228.60000000000002, 100%, 69.6%)" stroke-width="1.5"></path><path d="M1277.14 -110.74L1447.73 -51.51" stroke="hsl(228.60000000000002, 100%, 69.6%)" stroke-width="1.5"></path><path d="M1277.14 -110.74L1407.29 91.52" stroke="hsl(228.60000000000002, 100%, 69.6%)" stroke-width="1.5"></path><path d="M1277.14 -110.74L1564.33 -93.46" stroke="hsl(228.60000000000002, 100%, 69.6%)" stroke-width="1.5"></path><path d="M1293.93 37.64L1293.93 37.64" stroke="hsl(228.60000000000002, 100%, 69.6%)" stroke-width="1.5"></path><path d="M1293.93 37.64L1407.29 91.52" stroke="hsl(228.60000000000002, 100%, 69.6%)" stroke-width="1.5"></path><path d="M1246.18 489.23L1246.18 489.23" stroke="hsl(228.60000000000002, 100%, 69.6%)" stroke-width="1.5"></path><path d="M1246.18 489.23L1147.46 375.87" stroke="hsl(228.60000000000002, 100%, 69.6%)" stroke-width="1.5"></path><path d="M1246.18 489.23L1428.75 379.55" stroke="hsl(228.60000000000002, 100%, 69.6%)" stroke-width="1.5"></path><path d="M1302.97 698.59L1302.97 698.59" stroke="hsl(228.60000000000002, 100%, 69.6%)" stroke-width="1.5"></path><path d="M1302.97 698.59L1415.26 672.15" stroke="hsl(228.60000000000002, 100%, 69.6%)" stroke-width="1.5"></path><path d="M1447.73 -51.51L1447.73 -51.51" stroke="hsl(228.60000000000002, 100%, 69.6%)" stroke-width="1.5"></path><path d="M1447.73 -51.51L1564.33 -93.46" stroke="hsl(228.60000000000002, 100%, 69.6%)" stroke-width="1.5"></path><path d="M1447.73 -51.51L1407.29 91.52" stroke="hsl(228.60000000000002, 100%, 69.6%)" stroke-width="1.5"></path><path d="M1407.29 91.52L1407.29 91.52" stroke="hsl(228.60000000000002, 100%, 69.6%)" stroke-width="1.5"></path><path d="M1428.75 379.55L1428.75 379.55" stroke="hsl(228.60000000000002, 100%, 69.6%)" stroke-width="1.5"></path><path d="M1428.75 379.55L1604.02 337.99" stroke="hsl(228.60000000000002, 100%, 69.6%)" stroke-width="1.5"></path><path d="M1415.26 672.15L1415.26 672.15" stroke="hsl(228.60000000000002, 100%, 69.6%)" stroke-width="1.5"></path><path d="M1415.26 672.15L1553.11 651.49" stroke="hsl(228.60000000000002, 100%, 69.6%)" stroke-width="1.5"></path><path d="M1564.33 -93.46L1564.33 -93.46" stroke="hsl(228.60000000000002, 100%, 69.6%)" stroke-width="1.5"></path><path d="M1564.33 -93.46L1611.2 103.09" stroke="hsl(228.60000000000002, 100%, 69.6%)" stroke-width="1.5"></path><path d="M1564.33 -93.46L1407.29 91.52" stroke="hsl(228.60000000000002, 100%, 69.6%)" stroke-width="1.5"></path><path d="M1564.33 -93.46L1579.5 198.79" stroke="hsl(228.60000000000002, 100%, 69.6%)" stroke-width="1.5"></path><path d="M1564.33 -93.46L1293.93 37.64" stroke="hsl(228.60000000000002, 100%, 69.6%)" stroke-width="1.5"></path><path d="M1611.2 103.09L1611.2 103.09" stroke="hsl(228.60000000000002, 100%, 69.6%)" stroke-width="1.5"></path><path d="M1611.2 103.09L1579.5 198.79" stroke="hsl(228.60000000000002, 100%, 69.6%)" stroke-width="1.5"></path><path d="M1579.5 198.79L1579.5 198.79" stroke="hsl(228.60000000000002, 100%, 69.6%)" stroke-width="1.5"></path><path d="M1579.5 198.79L1604.02 337.99" stroke="hsl(228.60000000000002, 100%, 69.6%)" stroke-width="1.5"></path><path d="M1579.5 198.79L1407.29 91.52" stroke="hsl(228.60000000000002, 100%, 69.6%)" stroke-width="1.5"></path><path d="M1579.5 198.79L1428.75 379.55" stroke="hsl(228.60000000000002, 100%, 69.6%)" stroke-width="1.5"></path><path d="M1579.5 198.79L1447.73 -51.51" stroke="hsl(228.60000000000002, 100%, 69.6%)" stroke-width="1.5"></path><path d="M1604.02 337.99L1604.02 337.99" stroke="hsl(228.60000000000002, 100%, 69.6%)" stroke-width="1.5"></path><path d="M1604.02 337.99L1598.44 523.14" stroke="hsl(228.60000000000002, 100%, 69.6%)" stroke-width="1.5"></path><path d="M1604.02 337.99L1611.2 103.09" stroke="hsl(228.60000000000002, 100%, 69.6%)" stroke-width="1.5"></path><path d="M1604.02 337.99L1415.25 532.44" stroke="hsl(228.60000000000002, 100%, 69.6%)" stroke-width="1.5"></path><path d="M1604.02 337.99L1407.29 91.52" stroke="hsl(228.60000000000002, 100%, 69.6%)" stroke-width="1.5"></path><path d="M1598.44 523.14L1598.44 523.14" stroke="hsl(228.60000000000002, 100%, 69.6%)" stroke-width="1.5"></path><path d="M1598.44 523.14L1553.11 651.49" stroke="hsl(228.60000000000002, 100%, 69.6%)" stroke-width="1.5"></path><path d="M1553.11 651.49L1553.11 651.49" stroke="hsl(228.60000000000002, 100%, 69.6%)" stroke-width="1.5"></path><path d="M1553.11 651.49L1302.97 698.59" stroke="hsl(228.60000000000002, 100%, 69.6%)" stroke-width="1.5"></path><circle r="25" cx="51.21" cy="694.18" fill="url(&quot;#SvgjsRadialGradient1089&quot;)"></circle><circle r="25" cx="653.09" cy="547.97" fill="url(&quot;#SvgjsRadialGradient1089&quot;)"></circle><circle r="25" cx="1135.55" cy="237.21" fill="url(&quot;#SvgjsRadialGradient1089&quot;)"></circle><circle r="25" cx="1147.46" cy="375.87" fill="url(&quot;#SvgjsRadialGradient1089&quot;)"></circle><circle r="25" cx="1267.34" cy="341.72" fill="url(&quot;#SvgjsRadialGradient1089&quot;)"></circle><circle r="25" cx="1415.25" cy="532.44" fill="url(&quot;#SvgjsRadialGradient1089&quot;)"></circle><circle r="5" cx="-69.26" cy="503.46" fill="#899fff"></circle><circle r="5" cx="-87.32" cy="707.08" fill="#899fff"></circle><circle r="5" cx="96.16" cy="522.91" fill="#899fff"></circle><circle r="5" cx="191.34" cy="505.83" fill="#899fff"></circle><circle r="5" cx="214.17" cy="686.74" fill="#899fff"></circle><circle r="5" cx="400.18" cy="537.69" fill="#899fff"></circle><circle r="5" cx="339.58" cy="691.46" fill="#899fff"></circle><circle r="5" cx="516.68" cy="530.85" fill="#899fff"></circle><circle r="5" cx="516.05" cy="653.74" fill="#899fff"></circle><circle r="5" cx="642.63" cy="679.19" fill="#899fff"></circle><circle r="5" cx="824.16" cy="559.16" fill="#899fff"></circle><circle r="5" cx="852.5" cy="659.23" fill="#899fff"></circle><circle r="5" cx="1006.21" cy="243.33" fill="#899fff"></circle><circle r="5" cx="1008.29" cy="373.76" fill="#899fff"></circle><circle r="5" cx="939.17" cy="550.91" fill="#899fff"></circle><circle r="5" cx="986.71" cy="679.7" fill="#899fff"></circle><circle r="5" cx="1162.03" cy="-78.96" fill="#899fff"></circle><circle r="5" cx="1156.6" cy="74.29" fill="#899fff"></circle><circle r="5" cx="1118.42" cy="487.99" fill="#899fff"></circle><circle r="5" cx="1141.56" cy="663.25" fill="#899fff"></circle><circle r="5" cx="1277.14" cy="-110.74" fill="#899fff"></circle><circle r="5" cx="1293.93" cy="37.64" fill="#899fff"></circle><circle r="5" cx="1246.18" cy="489.23" fill="#899fff"></circle><circle r="5" cx="1302.97" cy="698.59" fill="#899fff"></circle><circle r="5" cx="1447.73" cy="-51.51" fill="#899fff"></circle><circle r="5" cx="1407.29" cy="91.52" fill="#899fff"></circle><circle r="5" cx="1428.75" cy="379.55" fill="#899fff"></circle><circle r="5" cx="1415.26" cy="672.15" fill="#899fff"></circle><circle r="5" cx="1564.33" cy="-93.46" fill="#899fff"></circle><circle r="5" cx="1611.2" cy="103.09" fill="#899fff"></circle><circle r="5" cx="1579.5" cy="198.79" fill="#899fff"></circle><circle r="5" cx="1604.02" cy="337.99" fill="#899fff"></circle><circle r="5" cx="1598.44" cy="523.14" fill="#899fff"></circle><circle r="5" cx="1553.11" cy="651.49" fill="#899fff"></circle></g><defs><mask id="SvgjsMask1088"><rect width="1440" height="560" fill="#ffffff"></rect></mask><radialGradient id="SvgjsRadialGradient1089"><stop stop-color="#ffffff" offset="0.1"></stop><stop stop-color="rgba(18, 63, 255, 1)" offset="0.2"></stop><stop stop-color="rgba(18, 63, 255, 0)" offset="1"></stop></radialGradient></defs></svg>