<svg id="visual" viewBox="0 0 960 540" width="960" height="540" xmlns="http://www.w3.org/2000/svg" xmlns:xlink="http://www.w3.org/1999/xlink" version="1.1"><rect x="0" y="0" width="960" height="540" fill="#002233"></rect><path d="M0 248L22.8 233.3C45.7 218.7 91.3 189.3 137 190.7C182.7 192 228.3 224 274 240.5C319.7 257 365.3 258 411.2 247.7C457 237.3 503 215.7 548.8 203.3C594.7 191 640.3 188 686 202.2C731.7 216.3 777.3 247.7 823 248.8C868.7 250 914.3 221 937.2 206.5L960 192L960 0L937.2 0C914.3 0 868.7 0 823 0C777.3 0 731.7 0 686 0C640.3 0 594.7 0 548.8 0C503 0 457 0 411.2 0C365.3 0 319.7 0 274 0C228.3 0 182.7 0 137 0C91.3 0 45.7 0 22.8 0L0 0Z" fill="#0066FF" stroke-linecap="round" stroke-linejoin="miter"></path></svg>