<svg xmlns="http://www.w3.org/2000/svg" version="1.1" xmlns:xlink="http://www.w3.org/1999/xlink" xmlns:svgjs="http://svgjs.dev/svgjs" width="1440" height="560" preserveAspectRatio="none" viewBox="0 0 1440 560"><g mask="url(&quot;#SvgjsMask1372&quot;)" fill="none"><path d="M1536 560L0 560 L0 326.73Q53 307.73, 72 360.72Q104.14 272.87, 192 305.01Q240.43 281.44, 264 329.86Q340.92 286.78, 384 363.71Q409.21 268.92, 504 294.13Q580.6 250.73, 624 327.33Q677.55 308.88, 696 362.44Q764.78 311.22, 816 380Q840.26 284.26, 936 308.52Q962.09 262.61, 1008 288.7Q1066.82 275.51, 1080 334.33Q1103.7 286.03, 1152 309.74Q1241.28 279.02, 1272 368.31Q1284.83 309.14, 1344 321.97Q1368.12 274.09, 1416 298.2Q1508.67 270.87, 1536 363.54z" fill="rgba(60, 151, 255, 0.48)"></path><path d="M1536 560L0 560 L0 383.12Q41.98 353.1, 72 395.07Q130.13 381.2, 144 439.34Q165.28 340.62, 264 361.89Q309.77 335.66, 336 381.44Q423.6 349.04, 456 436.64Q493.85 354.49, 576 392.33Q625.89 370.22, 648 420.11Q683.06 335.17, 768 370.22Q811.7 341.93, 840 385.63Q861.44 335.07, 912 356.52Q956.61 329.13, 984 373.74Q1056.05 373.79, 1056 445.84Q1046.46 364.3, 1128 354.76Q1200.15 354.91, 1200 427.06Q1242.51 397.57, 1272 440.08Q1296.05 392.13, 1344 416.17Q1373.12 373.29, 1416 402.41Q1460.45 326.87, 1536 371.32z" fill="rgba(60, 151, 255, 0.48)"></path><path d="M1512 560L0 560 L0 480.53Q21.22 429.75, 72 450.96Q161.95 420.91, 192 510.87Q211.63 410.5, 312 430.13Q362.08 408.21, 384 458.29Q440.67 442.96, 456 499.63Q488.25 411.88, 576 444.13Q620.02 416.15, 648 460.18Q711.77 451.95, 720 515.71Q758.25 433.96, 840 472.21Q912.63 424.85, 960 497.48Q974.63 440.11, 1032 454.73Q1075.1 425.83, 1104 468.92Q1155.54 448.46, 1176 499.99Q1204.01 456, 1248 484.01Q1259.43 423.44, 1320 434.87Q1387.47 382.34, 1440 449.81Q1493.98 431.79, 1512 485.77z" fill="rgba(60, 151, 255, 1)"></path><path d="M1512 560L0 560 L0 584.27Q23.31 535.58, 72 558.89Q99.96 466.85, 192 494.8Q262.66 445.46, 312 516.12Q406.55 490.67, 432 585.22Q445.5 526.73, 504 540.23Q533.01 497.25, 576 526.26Q651.41 481.67, 696 557.09Q744.29 533.38, 768 581.67Q768.75 510.42, 840 511.17Q894.54 445.71, 960 500.25Q1041.31 461.56, 1080 542.86Q1129.57 520.43, 1152 570.01Q1173.36 471.37, 1272 492.72Q1350.34 451.06, 1392 529.4Q1473.23 490.63, 1512 571.87z" fill="rgba(60, 151, 255, 1)"></path></g><defs><mask id="SvgjsMask1372"><rect width="1440" height="560" fill="#ffffff"></rect></mask></defs></svg>