<svg xmlns="http://www.w3.org/2000/svg" version="1.1" xmlns:xlink="http://www.w3.org/1999/xlink" xmlns:svgjs="http://svgjs.dev/svgjs" width="1440" height="560" preserveAspectRatio="none" viewBox="0 0 1440 560"><g mask="url(&quot;#SvgjsMask1381&quot;)" fill="none"><path d="M1512 560L0 560 L0 306.54Q58.18 292.72, 72 350.89Q96.44 303.32, 144 327.76Q164.99 276.75, 216 297.74Q239.08 248.82, 288 271.9Q355.81 219.71, 408 287.52Q453.88 261.39, 480 307.27Q513.18 220.45, 600 253.63Q650.8 232.44, 672 283.24Q716.22 255.46, 744 299.68Q758.31 241.99, 816 256.3Q863.96 232.26, 888 280.22Q976.31 248.53, 1008 336.84Q1076.3 285.13, 1128 353.43Q1139.63 245.06, 1248 256.69Q1299.3 235.99, 1320 287.28Q1389.72 237, 1440 306.71Q1492.46 287.17, 1512 339.63z" fill="rgba(60, 151, 255, 0.48)"></path><path d="M1536 560L0 560 L0 426.16Q46.33 352.49, 120 398.82Q145.13 351.94, 192 377.07Q232.7 297.77, 312 338.47Q356.44 310.92, 384 355.36Q477.74 329.1, 504 422.83Q548.99 347.81, 624 392.8Q661.65 310.45, 744 348.1Q809.87 293.97, 864 359.84Q937.27 361.11, 936 434.37Q954.22 332.59, 1056 350.81Q1100.34 323.15, 1128 367.49Q1194.47 361.96, 1200 428.43Q1217.73 374.16, 1272 391.89Q1298.12 346, 1344 372.12Q1366.86 322.98, 1416 345.84Q1509.95 319.79, 1536 413.75z" fill="rgba(60, 151, 255, 0.48)"></path><path d="M1512 560L0 560 L0 485Q57.17 422.17, 120 479.34Q166.26 405.6, 240 451.86Q302.29 442.15, 312 504.44Q331.8 452.24, 384 472.03Q412.39 428.42, 456 456.81Q507.31 436.12, 528 487.43Q555.55 394.98, 648 422.53Q697.83 400.36, 720 450.19Q770.87 429.06, 792 479.92Q794.05 409.97, 864 412.01Q929.18 357.19, 984 422.38Q1065.09 383.47, 1104 464.55Q1152.6 441.14, 1176 489.74Q1219.91 461.65, 1248 505.57Q1254.17 439.74, 1320 445.91Q1345.73 399.64, 1392 425.38Q1470.33 383.71, 1512 462.04z" fill="rgba(60, 151, 255, 1)"></path><path d="M1464 560L0 560 L0 494.73Q45.56 468.29, 72 513.84Q170.45 492.29, 192 590.74Q194.82 521.56, 264 524.37Q279.7 468.07, 336 483.78Q379.77 455.55, 408 499.33Q470.7 490.03, 480 552.74Q523.44 524.18, 552 567.62Q569.81 513.43, 624 531.24Q641.06 476.3, 696 493.36Q740.58 465.94, 768 510.51Q847.98 470.49, 888 550.47Q937.97 528.44, 960 578.41Q968.66 515.07, 1032 523.72Q1103.41 475.13, 1152 546.54Q1182.47 505, 1224 535.47Q1271.09 462.56, 1344 509.65Q1433 478.65, 1464 567.65z" fill="rgba(60, 151, 255, 1)"></path></g><defs><mask id="SvgjsMask1381"><rect width="1440" height="560" fill="#ffffff"></rect></mask></defs></svg>