<svg xmlns="http://www.w3.org/2000/svg" version="1.1" xmlns:xlink="http://www.w3.org/1999/xlink" xmlns:svgjs="http://svgjs.dev/svgjs" width="1440" height="560" preserveAspectRatio="none" viewBox="0 0 1440 560"><g mask="url(&quot;#SvgjsMask1276&quot;)" fill="none"><path d="M1512 560L0 560 L0 334.03Q90.29 304.31, 120 394.6Q161.25 363.85, 192 405.09Q211.48 352.57, 264 372.05Q285.36 321.41, 336 342.77Q362.2 296.97, 408 323.16Q496.26 291.42, 528 379.68Q529.58 309.25, 600 310.83Q599.91 190.74, 720 190.65Q774.25 124.89, 840 179.14Q940.85 159.99, 960 260.84Q1014.74 195.58, 1080 250.32Q1089.56 187.88, 1152 197.43Q1201.56 126.99, 1272 176.55Q1375.36 159.91, 1392 263.26Q1434 185.26, 1512 227.26z" fill="rgba(60, 151, 255, 0.62)"></path><path d="M1488 560L0 560 L0 606.22Q-58 428.22, 120 370.22Q263.98 442.2, 192 586.18Q149.9 472.08, 264 429.98Q270.64 364.62, 336 371.26Q415.12 378.38, 408 457.49Q493.23 422.72, 528 507.95Q556.01 463.96, 600 491.97Q611.48 383.45, 720 394.93Q770.27 325.2, 840 375.47Q896.87 360.34, 912 417.21Q965.91 399.13, 984 453.04Q1038.27 387.31, 1104 441.59Q1133.96 399.55, 1176 429.51Q1209.24 342.75, 1296 375.99Q1366.08 326.07, 1416 396.15Q1484.75 392.9, 1488 461.65z" fill="rgba(60, 151, 255, 1)"></path></g><defs><mask id="SvgjsMask1276"><rect width="1440" height="560" fill="#ffffff"></rect></mask></defs></svg>