<svg xmlns="http://www.w3.org/2000/svg" version="1.1" xmlns:xlink="http://www.w3.org/1999/xlink" xmlns:svgjs="http://svgjs.dev/svgjs" width="1440" height="560" preserveAspectRatio="none" viewBox="0 0 1440 560"><g mask="url(&quot;#SvgjsMask1257&quot;)" fill="none"><path d="M1512 560L0 560 L0 310.98Q17.27 256.25, 72 273.53Q65.48 195.01, 144 188.49Q196.66 121.15, 264 173.81Q332.56 170.37, 336 238.92Q418.67 249.59, 408 332.27Q373.55 225.81, 480 191.36Q505.17 144.53, 552 169.7Q628.88 126.57, 672 203.45Q752.25 163.7, 792 243.95Q880.78 212.73, 912 301.5Q917.01 186.51, 1032 191.52Q1057.38 144.9, 1104 170.27Q1155.7 149.97, 1176 201.67Q1249.52 155.19, 1296 228.7Q1380.33 241.03, 1368 325.36Q1364.44 249.8, 1440 246.24Q1458.36 192.59, 1512 210.95z" fill="rgba(60, 151, 255, 0.33)"></path><path d="M1536 560L0 560 L0 447.27Q28.7 403.97, 72 432.67Q70.55 359.22, 144 357.76Q169.96 311.72, 216 337.67Q233.44 283.11, 288 300.54Q329.26 269.81, 360 311.07Q447.66 278.73, 480 366.39Q549.22 363.61, 552 432.82Q596.68 405.5, 624 450.19Q639.59 393.78, 696 409.37Q723.47 364.84, 768 392.3Q769.35 321.65, 840 323Q869.59 280.59, 912 310.18Q961.81 287.99, 984 337.79Q1113.19 346.98, 1104 476.17Q1089.11 341.27, 1224 326.38Q1350.97 333.36, 1344 460.33Q1390.22 434.55, 1416 480.77Q1450.7 395.47, 1536 430.17z" fill="rgba(60, 151, 255, 0.62)"></path><path d="M1512 560L0 560 L0 439.08Q125.44 444.52, 120 569.96Q185.71 515.67, 240 581.38Q243.33 512.71, 312 516.05Q305.1 437.15, 384 430.25Q463.49 389.74, 504 469.22Q601.47 494.69, 576 592.16Q567.55 511.71, 648 503.27Q685.13 420.4, 768 457.54Q820.01 389.56, 888 441.57Q941.6 423.17, 960 476.78Q1028.05 472.82, 1032 540.87Q1037.07 425.94, 1152 431Q1217.67 376.67, 1272 442.34Q1411.05 461.39, 1392 600.44Q1411.81 500.25, 1512 520.06z" fill="rgba(60, 151, 255, 1)"></path></g><defs><mask id="SvgjsMask1257"><rect width="1440" height="560" fill="#ffffff"></rect></mask></defs></svg>