<svg xmlns="http://www.w3.org/2000/svg" version="1.1" xmlns:xlink="http://www.w3.org/1999/xlink" xmlns:svgjs="http://svgjs.dev/svgjs" width="1440" height="560" preserveAspectRatio="none" viewBox="0 0 1440 560"><g mask="url(&quot;#SvgjsMask1204&quot;)" fill="none"><path d="M1026.67 456.52L1029.16 469.08 1017.45 474.27 1019.93 486.83 1008.22 492.01 1010.71 504.57 999 509.76" stroke="rgba(53, 79, 231, 1)" stroke-width="1"></path><rect width="324" height="324" clip-path="url(&quot;#SvgjsClipPath1205&quot;)" x="389.04" y="125.7" fill="url(&quot;#SvgjsPattern1206&quot;)" transform="rotate(38.81, 551.04, 287.7)"></rect><rect width="120" height="120" clip-path="url(&quot;#SvgjsClipPath1207&quot;)" x="187.21" y="266.94" fill="url(&quot;#SvgjsPattern1208&quot;)" transform="rotate(16.13, 247.21, 326.94)"></rect><path d="M998.92 267.81a5.6 5.6 0 1 0 5.69 9.65 5.6 5.6 0 1 0-5.69-9.65zM1007.05 281.59a5.6 5.6 0 1 0 5.69 9.65 5.6 5.6 0 1 0-5.69-9.65zM1015.18 295.37a5.6 5.6 0 1 0 5.69 9.65 5.6 5.6 0 1 0-5.69-9.65zM1023.31 309.16a5.6 5.6 0 1 0 5.69 9.64 5.6 5.6 0 1 0-5.69-9.64zM968.88 248.38a5.6 5.6 0 1 0 5.69 9.64 5.6 5.6 0 1 0-5.69-9.64zM977.01 262.16a5.6 5.6 0 1 0 5.69 9.64 5.6 5.6 0 1 0-5.69-9.64zM985.14 275.94a5.6 5.6 0 1 0 5.69 9.65 5.6 5.6 0 1 0-5.69-9.65zM993.27 289.72a5.6 5.6 0 1 0 5.69 9.65 5.6 5.6 0 1 0-5.69-9.65z" stroke="rgba(53, 79, 231, 1)" stroke-width="1.16"></path><circle r="46.666666666666664" cx="380.86" cy="475.6" fill="rgba(0, 0, 0, 1)"></circle><rect width="216" height="216" clip-path="url(&quot;#SvgjsClipPath1209&quot;)" x="944.48" y="119.09" fill="url(&quot;#SvgjsPattern1210&quot;)" transform="rotate(331.82, 1052.48, 227.09)"></rect><path d="M1005.14 402.16999999999996 L1019.55 336.41999999999996L980.5401093087393 337.49010930873914z" fill="rgba(0, 255, 245, 1)"></path><rect width="139.44" height="139.44" clip-path="url(&quot;#SvgjsClipPath1211&quot;)" x="921.84" y="418.83" fill="url(&quot;#SvgjsPattern1212&quot;)" transform="rotate(211.07, 991.56, 488.55)"></rect><circle r="46.666666666666664" cx="645.9" cy="273.59" fill="rgba(0, 255, 245, 1)"></circle><rect width="336" height="336" clip-path="url(&quot;#SvgjsClipPath1213&quot;)" x="741.62" y="235.92" fill="url(&quot;#SvgjsPattern1214&quot;)" transform="rotate(145.37, 909.62, 403.92)"></rect><path d="M476.89 164.63L473.49 152.29 484.79 146.26 481.39 133.91 492.68 127.88 489.28 115.54 500.58 109.51M484.24 167.79L480.84 155.45 492.14 149.42 488.74 137.07 500.03 131.04 496.63 118.7 507.93 112.67M491.59 170.95L488.19 158.6 499.49 152.58 496.09 140.23 507.38 134.2 503.98 121.86 515.28 115.83" stroke="rgba(53, 79, 231, 1)" stroke-width="1.75" stroke-dasharray="3, 2"></path><rect width="289.44" height="289.44" clip-path="url(&quot;#SvgjsClipPath1215&quot;)" x="546.17" y="330.73" fill="url(&quot;#SvgjsPattern1216&quot;)" transform="rotate(180.16, 690.89, 475.45)"></rect></g><defs><mask id="SvgjsMask1204"><rect width="1440" height="560" fill="#ffffff"></rect></mask><pattern x="0" y="0" width="6" height="6" patternUnits="userSpaceOnUse" id="SvgjsPattern1206"><path d="M0 6L3 0L6 6" stroke="rgba(0, 0, 0, 1)" fill="none"></path></pattern><clipPath id="SvgjsClipPath1205"><circle r="81" cx="551.04" cy="287.7"></circle></clipPath><pattern x="0" y="0" width="6" height="6" patternUnits="userSpaceOnUse" id="SvgjsPattern1208"><path d="M0 6L3 0L6 6" stroke="rgba(0, 0, 0, 1)" fill="none"></path></pattern><clipPath id="SvgjsClipPath1207"><circle r="30" cx="247.21" cy="326.94"></circle></clipPath><pattern x="0" y="0" width="6" height="6" patternUnits="userSpaceOnUse" id="SvgjsPattern1210"><path d="M0 6L3 0L6 6" stroke="rgba(53, 79, 231, 1)" fill="none"></path></pattern><clipPath id="SvgjsClipPath1209"><circle r="54" cx="1052.48" cy="227.09"></circle></clipPath><pattern x="0" y="0" width="9.96" height="9.96" patternUnits="userSpaceOnUse" id="SvgjsPattern1212"><path d="M4.98 1L4.98 8.96M1 4.98L8.96 4.98" stroke="rgba(0, 255, 245, 1)" fill="none" stroke-width="3.77"></path></pattern><clipPath id="SvgjsClipPath1211"><circle r="34.86" cx="991.56" cy="488.55"></circle></clipPath><pattern x="0" y="0" width="6" height="6" patternUnits="userSpaceOnUse" id="SvgjsPattern1214"><path d="M3 1L3 5M1 3L5 3" stroke="rgba(53, 79, 231, 1)" fill="none" stroke-width="1"></path></pattern><clipPath id="SvgjsClipPath1213"><circle r="84" cx="909.62" cy="403.92"></circle></clipPath><pattern x="0" y="0" width="12.06" height="12.06" patternUnits="userSpaceOnUse" id="SvgjsPattern1216"><path d="M6.03 1L6.03 11.06M1 6.03L11.06 6.03" stroke="rgba(0, 0, 0, 1)" fill="none" stroke-width="3.42"></path></pattern><clipPath id="SvgjsClipPath1215"><circle r="72.36" cx="690.89" cy="475.45"></circle></clipPath></defs></svg>